# This file uses centimeters as units for non-parametric coordinates.

mtllib body.mtl
g default
v 0.000000 0.436283 -0.325690
v 0.294183 0.436283 -0.325690
v 0.587690 0.353259 -0.325690
v 0.761410 0.155120 -0.325690
v 1.080549 0.000064 -0.325690
v 1.234949 -0.283170 -0.325690
v 0.000000 0.427496 -0.858174
v 0.294183 0.427496 -0.858174
v 0.587690 0.344472 -0.858174
v 0.761410 0.146333 -0.858174
v 1.080549 -0.008723 -0.858174
v 1.234949 -0.233303 -0.858174
v 0.000000 0.547205 -1.390659
v 0.294183 0.547205 -1.390659
v 0.587690 0.464181 -1.390659
v 0.761410 0.266042 -1.390659
v 1.080549 0.110986 -1.390659
v 1.234949 -0.148410 -1.390659
v 0.000000 0.685054 -1.923144
v 0.294183 0.685054 -1.923144
v 0.587690 0.602030 -1.923144
v 0.761410 0.403891 -1.923144
v 1.080549 0.373938 -1.923144
v 1.234949 -0.047509 -1.923144
v 0.000000 0.765484 -2.455629
v 0.294183 0.765484 -2.455629
v 0.587690 0.682460 -2.455629
v 0.761410 0.484322 -2.455629
v 1.080549 0.454368 -2.455629
v 1.234949 0.068267 -2.455629
v 0.000000 0.876353 -2.988115
v 0.294183 0.876353 -2.988115
v 0.587690 0.793328 -2.988115
v 0.761410 0.595190 -2.988115
v 1.080549 0.565237 -2.988115
v 1.234949 0.115947 -2.988115
v -0.000000 0.876353 -3.520600
v 0.294183 0.876353 -3.520600
v 0.587690 0.793328 -3.520600
v 0.761410 0.595190 -3.520600
v 1.014451 0.565237 -3.520600
v 1.234949 0.110236 -3.520600
v 0.000000 0.709103 -4.053084
v 0.294183 0.709103 -4.053084
v 0.587690 0.626079 -4.053084
v 0.761410 0.427940 -4.053084
v 0.886590 0.388489 -4.053084
v 1.234949 -0.076423 -4.198101
v -0.000000 0.797166 -4.626848
v 0.294183 0.616440 -4.626848
v 0.411319 0.225712 -4.618590
v 0.761410 -0.038280 -4.626848
v 1.080549 -0.158086 -4.626848
v 1.234949 -0.254298 -4.626848
v 0.000000 0.676161 -4.969083
v 0.294183 0.491158 -4.969083
v 0.409062 0.280245 -4.969083
v 0.761410 -0.142730 -4.969083
v 1.080549 -0.262113 -4.969083
v 1.234949 -0.375303 -4.969083
v -0.000000 0.180471 -5.294096
v 0.294183 0.180471 -5.294096
v 0.472474 -0.196862 -5.249656
v 0.761410 -0.253114 -5.294096
v 1.080549 -0.283067 -5.294096
v 1.234949 -0.504072 -5.294096
v 1.234949 -0.212449 -4.385842
v 1.080549 -0.057978 -4.385842
v 0.761410 0.117824 -4.385842
v 0.471852 0.263043 -4.402376
v 0.294183 0.453129 -4.385842
v -0.000000 0.698258 -4.385842
v 1.234949 -0.143257 -4.284808
v 1.080549 -0.004062 -4.284808
v 0.761410 0.164541 -4.284808
v 0.587690 0.272702 -4.284808
v 0.294183 0.456986 -4.284808
v 0.000000 0.629214 -4.284808
v -0.294183 0.436283 -0.325690
v -0.587690 0.353259 -0.325690
v -0.761410 0.155120 -0.325690
v -1.080549 0.000064 -0.325690
v -1.234949 -0.283170 -0.325690
v -0.294183 0.427496 -0.858174
v -0.587690 0.344472 -0.858174
v -0.761410 0.146333 -0.858174
v -1.080549 -0.008723 -0.858174
v -1.234949 -0.233303 -0.858174
v -0.294183 0.547205 -1.390659
v -0.587690 0.464181 -1.390659
v -0.761410 0.266042 -1.390659
v -1.080549 0.110986 -1.390659
v -1.234949 -0.148410 -1.390659
v -0.294183 0.685054 -1.923144
v -0.587690 0.602030 -1.923144
v -0.761410 0.403891 -1.923144
v -1.080549 0.373938 -1.923144
v -1.234949 -0.047509 -1.923144
v -0.294183 0.765484 -2.455629
v -0.587690 0.682460 -2.455629
v -0.761410 0.484322 -2.455629
v -1.080549 0.454368 -2.455629
v -1.234949 0.068267 -2.455629
v -0.294183 0.876353 -2.988115
v -0.587690 0.793328 -2.988115
v -0.761410 0.595190 -2.988115
v -1.080549 0.565237 -2.988115
v -1.234949 0.115947 -2.988115
v -0.294183 0.876353 -3.520600
v -0.587690 0.793328 -3.520600
v -0.761410 0.595190 -3.520600
v -1.014451 0.565237 -3.520600
v -1.234949 0.110236 -3.520600
v -0.294183 0.709103 -4.053084
v -0.587690 0.626079 -4.053084
v -0.761410 0.427940 -4.053084
v -0.886590 0.388489 -4.053084
v -1.234949 -0.076423 -3.984147
v -0.294183 0.616440 -4.626848
v -0.411319 0.225712 -4.618590
v -0.761410 -0.038280 -4.626848
v -1.080549 -0.158086 -4.626848
v -1.234949 -0.254298 -4.626848
v -0.294183 0.491158 -4.969083
v -0.409062 0.280245 -4.969083
v -0.761410 -0.142730 -4.969083
v -1.080549 -0.262113 -4.969083
v -1.234949 -0.375303 -4.969083
v -0.294183 0.180471 -5.294096
v -0.472474 -0.196862 -5.249656
v -0.761410 -0.253114 -5.294096
v -1.080549 -0.283067 -5.294096
v -1.234949 -0.504072 -5.294096
v -1.234949 -0.212449 -4.385842
v -1.080549 -0.057978 -4.385842
v -0.761410 0.117824 -4.385842
v -0.471852 0.263043 -4.402376
v -0.294183 0.453129 -4.385842
v -1.234949 -0.143257 -4.284808
v -1.080549 -0.004062 -4.284808
v -0.761410 0.164541 -4.284808
v -0.587690 0.272702 -4.284808
v -0.294183 0.456986 -4.284808
vt 0.500000 0.000000
vt 0.600000 0.000000
vt 0.700000 0.000000
vt 0.800000 0.000000
vt 0.900000 0.000000
vt 1.000000 0.000000
vt 0.500000 0.100000
vt 0.600000 0.100000
vt 0.700000 0.100000
vt 0.800000 0.100000
vt 0.900000 0.100000
vt 1.000000 0.100000
vt 0.500000 0.200000
vt 0.600000 0.200000
vt 0.700000 0.200000
vt 0.800000 0.200000
vt 0.900000 0.200000
vt 1.000000 0.200000
vt 0.500000 0.300000
vt 0.600000 0.300000
vt 0.700000 0.300000
vt 0.800000 0.300000
vt 0.900000 0.300000
vt 1.000000 0.300000
vt 0.500000 0.400000
vt 0.600000 0.400000
vt 0.700000 0.400000
vt 0.800000 0.400000
vt 0.900000 0.400000
vt 1.000000 0.400000
vt 0.500000 0.500000
vt 0.600000 0.500000
vt 0.700000 0.500000
vt 0.800000 0.500000
vt 0.900000 0.500000
vt 1.000000 0.500000
vt 0.500000 0.600000
vt 0.600000 0.600000
vt 0.700000 0.600000
vt 0.800000 0.600000
vt 0.900000 0.600000
vt 1.000000 0.600000
vt 0.500000 0.700000
vt 0.600000 0.700000
vt 0.700000 0.700000
vt 0.800000 0.700000
vt 0.900000 0.700000
vt 1.000000 0.700000
vt 0.500000 0.800000
vt 0.600000 0.800000
vt 0.700000 0.800000
vt 0.800000 0.800000
vt 0.900000 0.800000
vt 1.000000 0.800000
vt 0.500000 0.900000
vt 0.600000 0.900000
vt 0.700000 0.900000
vt 0.800000 0.900000
vt 0.900000 0.900000
vt 1.000000 0.900000
vt 0.500000 1.000000
vt 0.600000 1.000000
vt 0.700000 1.000000
vt 0.800000 1.000000
vt 0.900000 1.000000
vt 1.000000 1.000000
vt 1.000000 0.748649
vt 0.900000 0.748649
vt 0.800000 0.748649
vt 0.700000 0.748649
vt 0.600000 0.748649
vt 0.500000 0.748649
vt 1.000000 0.730782
vt 0.900000 0.730782
vt 0.800000 0.730782
vt 0.700000 0.730782
vt 0.600000 0.730782
vt 0.500000 0.730782
vt 0.500000 0.000000
vt 0.600000 0.000000
vt 0.600000 0.100000
vt 0.500000 0.100000
vt 0.700000 0.000000
vt 0.700000 0.100000
vt 0.800000 0.000000
vt 0.800000 0.100000
vt 0.900000 0.000000
vt 0.900000 0.100000
vt 1.000000 0.000000
vt 1.000000 0.100000
vt 0.600000 0.200000
vt 0.500000 0.200000
vt 0.700000 0.200000
vt 0.800000 0.200000
vt 0.900000 0.200000
vt 1.000000 0.200000
vt 0.600000 0.300000
vt 0.500000 0.300000
vt 0.700000 0.300000
vt 0.800000 0.300000
vt 0.900000 0.300000
vt 1.000000 0.300000
vt 0.600000 0.400000
vt 0.500000 0.400000
vt 0.700000 0.400000
vt 0.800000 0.400000
vt 0.900000 0.400000
vt 1.000000 0.400000
vt 0.600000 0.500000
vt 0.500000 0.500000
vt 0.700000 0.500000
vt 0.800000 0.500000
vt 0.900000 0.500000
vt 1.000000 0.500000
vt 0.600000 0.600000
vt 0.500000 0.600000
vt 0.700000 0.600000
vt 0.800000 0.600000
vt 0.900000 0.600000
vt 1.000000 0.600000
vt 0.600000 0.700000
vt 0.500000 0.700000
vt 0.700000 0.700000
vt 0.800000 0.700000
vt 0.900000 0.700000
vt 1.000000 0.700000
vt 0.600000 0.730782
vt 0.500000 0.730782
vt 0.700000 0.730782
vt 0.800000 0.730782
vt 0.900000 0.730782
vt 1.000000 0.730782
vt 0.500000 0.800000
vt 0.600000 0.800000
vt 0.600000 0.900000
vt 0.500000 0.900000
vt 0.700000 0.800000
vt 0.700000 0.900000
vt 0.800000 0.800000
vt 0.800000 0.900000
vt 0.900000 0.800000
vt 0.900000 0.900000
vt 1.000000 0.800000
vt 1.000000 0.900000
vt 0.600000 1.000000
vt 0.500000 1.000000
vt 0.700000 1.000000
vt 0.800000 1.000000
vt 0.900000 1.000000
vt 1.000000 1.000000
vt 0.900000 0.748649
vt 1.000000 0.748649
vt 0.800000 0.748649
vt 0.700000 0.748649
vt 0.600000 0.748649
vt 0.500000 0.748649
vn 0.000000 0.999864 -0.016499
vn 0.137371 0.990385 -0.016343
vn 0.150338 0.982470 0.110229
vn 0.000000 0.994619 0.103595
vn 0.504223 0.863456 -0.014248
vn 0.569578 0.817551 0.084801
vn 0.590403 0.806999 -0.013317
vn 0.537710 0.838168 0.091342
vn 0.642453 0.766325 0.000195
vn 0.701323 0.709387 0.070116
vn 0.854253 0.519470 0.020038
vn 0.850208 0.524534 0.044844
vn 0.136608 0.962237 0.235454
vn 0.000000 0.971979 0.235069
vn 0.508570 0.836922 0.202284
vn 0.510126 0.824062 0.246358
vn 0.704063 0.684071 0.190635
vn 0.860567 0.496239 0.114765
vn 0.134416 0.972315 0.191145
vn 0.000000 0.979635 0.200789
vn 0.492540 0.852475 0.175185
vn 0.463692 0.861121 0.208473
vn 0.643678 0.740988 0.191352
vn 0.910447 0.395664 0.120568
vn 0.139375 0.973943 0.178911
vn 0.000000 0.984247 0.176798
vn 0.518729 0.841519 0.150884
vn 0.404398 0.900560 0.159541
vn 0.691495 0.712134 0.121240
vn 0.933583 0.353118 0.061081
vn 0.127547 0.987367 0.094011
vn 0.000000 0.994625 0.103545
vn 0.459478 0.883365 0.092443
vn 0.481261 0.871265 0.096358
vn 0.634746 0.771206 0.048358
vn 0.931459 0.363847 -0.000618
vn 0.124635 0.982476 -0.138588
vn 0.000000 0.987892 -0.155145
vn 0.445200 0.884548 -0.139179
vn 0.536633 0.833198 -0.133439
vn 0.640385 0.754390 -0.144229
vn 0.850506 0.491342 -0.187675
vn 0.183976 0.895841 -0.404502
vn 0.000000 0.916636 -0.399723
vn 0.516167 0.730662 -0.446884
vn 0.392803 0.758543 -0.519922
vn 0.684499 0.629730 -0.367290
vn 0.721089 0.580976 -0.377490
vn 0.365838 0.707088 -0.605136
vn 0.000000 0.931678 -0.363285
vn 0.454743 0.619389 -0.639973
vn 0.357269 0.664428 -0.656426
vn 0.510180 0.688611 -0.515297
vn 0.619580 0.651187 -0.438265
vn 0.552275 0.833661 0.001359
vn 0.612337 0.790477 0.013797
vn 0.598681 0.618102 -0.509442
vn -0.000000 0.892818 -0.450417
vn 0.720196 0.679639 -0.139315
vn 0.849481 0.469572 -0.240591
vn 0.565517 0.795823 -0.216465
vn 0.436790 0.808313 -0.394772
vn 0.432337 0.854399 -0.288250
vn 0.432594 0.872378 -0.227639
vn 0.557985 0.790015 -0.254026
vn 0.695188 0.697190 -0.175039
vn 0.607604 0.517752 -0.602287
vn -0.000000 0.627590 -0.778544
vn 0.480790 0.650187 -0.588300
vn 0.339003 0.857561 -0.386867
vn 0.478784 0.858698 -0.182765
vn 0.725649 0.670508 -0.154440
vn 0.450361 0.790944 -0.414226
vn 0.616675 0.750380 -0.237996
vn 0.464518 0.788244 -0.403603
vn 0.706871 0.667411 -0.234300
vn 0.785733 0.617802 0.030726
vn 0.538491 0.745037 0.393633
vn -0.150338 0.982470 0.110229
vn -0.137371 0.990385 -0.016343
vn -0.569578 0.817551 0.084801
vn -0.504223 0.863456 -0.014248
vn -0.537710 0.838168 0.091342
vn -0.590403 0.806999 -0.013317
vn -0.701323 0.709387 0.070116
vn -0.642453 0.766325 0.000195
vn -0.850208 0.524534 0.044844
vn -0.854254 0.519470 0.020038
vn -0.136608 0.962237 0.235454
vn -0.508570 0.836922 0.202284
vn -0.510126 0.824062 0.246358
vn -0.704063 0.684071 0.190635
vn -0.860567 0.496239 0.114765
vn -0.134416 0.972315 0.191145
vn -0.492540 0.852475 0.175185
vn -0.463692 0.861121 0.208473
vn -0.643678 0.740988 0.191352
vn -0.910447 0.395664 0.120568
vn -0.139375 0.973943 0.178911
vn -0.518729 0.841519 0.150884
vn -0.404398 0.900560 0.159541
vn -0.691495 0.712134 0.121240
vn -0.933583 0.353118 0.061081
vn -0.127547 0.987367 0.094011
vn -0.459478 0.883365 0.092443
vn -0.481261 0.871265 0.096358
vn -0.634746 0.771206 0.048358
vn -0.931459 0.363847 -0.000618
vn -0.124635 0.982476 -0.138588
vn -0.445200 0.884548 -0.139179
vn -0.536633 0.833198 -0.133439
vn -0.640690 0.753202 -0.149010
vn -0.864984 0.456122 -0.209177
vn -0.183976 0.895841 -0.404502
vn -0.516166 0.730662 -0.446884
vn -0.392803 0.758543 -0.519922
vn -0.683563 0.606359 -0.406289
vn -0.783658 0.564663 -0.258911
vn -0.365838 0.707088 -0.605136
vn -0.454743 0.619389 -0.639973
vn -0.357269 0.664428 -0.656426
vn -0.672848 0.664460 -0.325221
vn -0.709722 0.631622 -0.312009
vn -0.552275 0.833661 0.001359
vn -0.598681 0.618102 -0.509442
vn -0.612337 0.790477 0.013797
vn -0.849481 0.469572 -0.240591
vn -0.720196 0.679639 -0.139315
vn -0.436790 0.808313 -0.394772
vn -0.565517 0.795823 -0.216465
vn -0.432594 0.872378 -0.227639
vn -0.432336 0.854399 -0.288250
vn -0.695188 0.697191 -0.175039
vn -0.557985 0.790015 -0.254026
vn -0.607604 0.517753 -0.602287
vn -0.480790 0.650187 -0.588300
vn -0.339003 0.857561 -0.386867
vn -0.478784 0.858699 -0.182765
vn -0.725649 0.670509 -0.154440
vn -0.450361 0.790944 -0.414226
vn -0.616675 0.750380 -0.237996
vn -0.464518 0.788244 -0.403603
vn -0.706871 0.667410 -0.234300
vn -0.785733 0.617802 0.030726
vn -0.538491 0.745037 0.393633
s 1
g pPlane1
usemtl initialShadingGroup
f 1/1/1 2/2/2 8/8/3 7/7/4
f 2/2/2 3/3/5 9/9/6 8/8/3
f 3/3/5 4/4/7 10/10/8 9/9/6
f 4/4/7 5/5/9 11/11/10 10/10/8
f 5/5/9 6/6/11 12/12/12 11/11/10
f 7/7/4 8/8/3 14/14/13 13/13/14
f 8/8/3 9/9/6 15/15/15 14/14/13
f 9/9/6 10/10/8 16/16/16 15/15/15
f 10/10/8 11/11/10 17/17/17 16/16/16
f 11/11/10 12/12/12 18/18/18 17/17/17
f 13/13/14 14/14/13 20/20/19 19/19/20
f 14/14/13 15/15/15 21/21/21 20/20/19
f 15/15/15 16/16/16 22/22/22 21/21/21
f 16/16/16 17/17/17 23/23/23 22/22/22
f 17/17/17 18/18/18 24/24/24 23/23/23
f 19/19/20 20/20/19 26/26/25 25/25/26
f 20/20/19 21/21/21 27/27/27 26/26/25
f 21/21/21 22/22/22 28/28/28 27/27/27
f 22/22/22 23/23/23 29/29/29 28/28/28
f 23/23/23 24/24/24 30/30/30 29/29/29
f 25/25/26 26/26/25 32/32/31 31/31/32
f 26/26/25 27/27/27 33/33/33 32/32/31
f 27/27/27 28/28/28 34/34/34 33/33/33
f 28/28/28 29/29/29 35/35/35 34/34/34
f 29/29/29 30/30/30 36/36/36 35/35/35
f 31/31/32 32/32/31 38/38/37 37/37/38
f 32/32/31 33/33/33 39/39/39 38/38/37
f 33/33/33 34/34/34 40/40/40 39/39/39
f 34/34/34 35/35/35 41/41/41 40/40/40
f 35/35/35 36/36/36 42/42/42 41/41/41
f 37/37/38 38/38/37 44/44/43 43/43/44
f 38/38/37 39/39/39 45/45/45 44/44/43
f 39/39/39 40/40/40 46/46/46 45/45/45
f 40/40/40 41/41/41 47/47/47 46/46/46
f 41/41/41 42/42/42 48/48/48 47/47/47
f 43/43/44 44/44/43 77/77/49 78/78/50
f 44/44/43 45/45/45 76/76/51 77/77/49
f 45/45/45 46/46/46 75/75/52 76/76/51
f 46/46/46 47/47/47 74/74/53 75/75/52
f 47/47/47 48/48/48 73/73/54 74/74/53
f 49/49/55 50/50/56 56/56/57 55/55/58
f 50/50/56 51/51/59 57/57/60 56/56/57
f 51/51/59 52/52/61 58/58/62 57/57/60
f 52/52/61 53/53/63 59/59/64 58/58/62
f 53/53/63 54/54/65 60/60/66 59/59/64
f 55/55/58 56/56/57 62/62/67 61/61/68
f 56/56/57 57/57/60 63/63/69 62/62/67
f 57/57/60 58/58/62 64/64/70 63/63/69
f 58/58/62 59/59/64 65/65/71 64/64/70
f 59/59/64 60/60/66 66/66/72 65/65/71
f 68/68/73 67/67/74 54/54/65 53/53/63
f 69/69/75 68/68/73 53/53/63 52/52/61
f 70/70/76 69/69/75 52/52/61 51/51/59
f 71/71/77 70/70/76 51/51/59 50/50/56
f 72/72/78 71/71/77 50/50/56 49/49/55
f 74/74/53 73/73/54 67/67/74 68/68/73
f 75/75/52 74/74/53 68/68/73 69/69/75
f 76/76/51 75/75/52 69/69/75 70/70/76
f 77/77/49 76/76/51 70/70/76 71/71/77
f 78/78/50 77/77/49 71/71/77 72/72/78
f 1/79/1 7/82/4 84/81/79 79/80/80
f 79/80/80 84/81/79 85/84/81 80/83/82
f 80/83/82 85/84/81 86/86/83 81/85/84
f 81/85/84 86/86/83 87/88/85 82/87/86
f 82/87/86 87/88/85 88/90/87 83/89/88
f 7/82/4 13/92/14 89/91/89 84/81/79
f 84/81/79 89/91/89 90/93/90 85/84/81
f 85/84/81 90/93/90 91/94/91 86/86/83
f 86/86/83 91/94/91 92/95/92 87/88/85
f 87/88/85 92/95/92 93/96/93 88/90/87
f 13/92/14 19/98/20 94/97/94 89/91/89
f 89/91/89 94/97/94 95/99/95 90/93/90
f 90/93/90 95/99/95 96/100/96 91/94/91
f 91/94/91 96/100/96 97/101/97 92/95/92
f 92/95/92 97/101/97 98/102/98 93/96/93
f 19/98/20 25/104/26 99/103/99 94/97/94
f 94/97/94 99/103/99 100/105/100 95/99/95
f 95/99/95 100/105/100 101/106/101 96/100/96
f 96/100/96 101/106/101 102/107/102 97/101/97
f 97/101/97 102/107/102 103/108/103 98/102/98
f 25/104/26 31/110/32 104/109/104 99/103/99
f 99/103/99 104/109/104 105/111/105 100/105/100
f 100/105/100 105/111/105 106/112/106 101/106/101
f 101/106/101 106/112/106 107/113/107 102/107/102
f 102/107/102 107/113/107 108/114/108 103/108/103
f 31/110/32 37/116/38 109/115/109 104/109/104
f 104/109/104 109/115/109 110/117/110 105/111/105
f 105/111/105 110/117/110 111/118/111 106/112/106
f 106/112/106 111/118/111 112/119/112 107/113/107
f 107/113/107 112/119/112 113/120/113 108/114/108
f 37/116/38 43/122/44 114/121/114 109/115/109
f 109/115/109 114/121/114 115/123/115 110/117/110
f 110/117/110 115/123/115 116/124/116 111/118/111
f 111/118/111 116/124/116 117/125/117 112/119/112
f 112/119/112 117/125/117 118/126/118 113/120/113
f 43/122/44 78/128/50 143/127/119 114/121/114
f 114/121/114 143/127/119 142/129/120 115/123/115
f 115/123/115 142/129/120 141/130/121 116/124/116
f 116/124/116 141/130/121 140/131/122 117/125/117
f 117/125/117 140/131/122 139/132/123 118/126/118
f 49/133/124 55/136/58 124/135/125 119/134/126
f 119/134/126 124/135/125 125/138/127 120/137/128
f 120/137/128 125/138/127 126/140/129 121/139/130
f 121/139/130 126/140/129 127/142/131 122/141/132
f 122/141/132 127/142/131 128/144/133 123/143/134
f 55/136/58 61/146/68 129/145/135 124/135/125
f 124/135/125 129/145/135 130/147/136 125/138/127
f 125/138/127 130/147/136 131/148/137 126/140/129
f 126/140/129 131/148/137 132/149/138 127/142/131
f 127/142/131 132/149/138 133/150/139 128/144/133
f 135/151/140 122/141/132 123/143/134 134/152/141
f 136/153/142 121/139/130 122/141/132 135/151/140
f 137/154/143 120/137/128 121/139/130 136/153/142
f 138/155/144 119/134/126 120/137/128 137/154/143
f 72/156/145 49/133/124 119/134/126 138/155/144
f 140/131/122 135/151/140 134/152/141 139/132/123
f 141/130/121 136/153/142 135/151/140 140/131/122
f 142/129/120 137/154/143 136/153/142 141/130/121
f 143/127/119 138/155/144 137/154/143 142/129/120
f 78/128/50 72/156/145 138/155/144 143/127/119
